<svg width="351" height="148" viewBox="0 0 351 148" fill="none" xmlns="http://www.w3.org/2000/svg">
<rect width="314" height="148" fill="white"/>
<g clip-path="url(#clip0_32_2)">
<path d="M266.205 50.1181C266.205 52.002 266.954 53.8088 268.286 55.1409C269.618 56.473 271.425 57.2214 273.309 57.2214C275.193 57.2214 276.999 56.473 278.332 55.1409C279.664 53.8088 280.412 52.002 280.412 50.1181C280.412 48.2342 279.664 46.4274 278.332 45.0953C276.999 43.7632 275.193 43.0148 273.309 43.0148C271.425 43.0148 269.618 43.7632 268.286 45.0953C266.954 46.4274 266.205 48.2342 266.205 50.1181ZM281.427 50.1181C281.427 52.2712 280.572 54.336 279.049 55.8585C277.527 57.3809 275.462 58.2362 273.309 58.2362C271.156 58.2362 269.091 57.3809 267.568 55.8585C266.046 54.336 265.191 52.2712 265.191 50.1181C265.191 47.9651 266.046 45.9002 267.568 44.3777C269.091 42.8553 271.156 42 273.309 42C275.462 42 277.527 42.8553 279.049 44.3777C280.572 45.9002 281.427 47.9651 281.427 50.1181ZM270.772 46.0611H273.928C275.663 46.0611 276.709 47.0484 276.709 48.5574C276.709 49.7122 276.032 50.526 275.192 50.8305L276.86 54.1771H275.318L273.836 51.0557H272.128V54.1771H270.772V46.0611ZM272.127 47.1672V49.9852H273.698C274.708 49.9852 275.295 49.5153 275.295 48.6051C275.295 47.6786 274.69 47.1672 273.735 47.1672H272.127Z" fill="#2B2A29"/>
</g>
<path d="M65.0226 83.7509H78.2026V90.1117H57.0001V50.1134H65.0226V83.7509Z" fill="#2B2A29"/>
<path d="M97.3986 90.6274C94.3424 90.6274 91.5918 89.9588 89.1468 88.6217C86.7018 87.2464 84.7726 85.3172 83.3591 82.834C81.9838 80.3509 81.2961 77.4856 81.2961 74.2384C81.2961 70.9912 82.0029 68.126 83.4164 65.6428C84.8681 63.1596 86.8355 61.2495 89.3187 59.9124C91.8019 58.5371 94.5716 57.8494 97.6278 57.8494C100.684 57.8494 103.454 58.5371 105.937 59.9124C108.42 61.2495 110.368 63.1596 111.782 65.6428C113.234 68.126 113.959 70.9912 113.959 74.2384C113.959 77.4856 113.215 80.3509 111.725 82.834C110.273 85.3172 108.286 87.2464 105.765 88.6217C103.282 89.9588 100.493 90.6274 97.3986 90.6274ZM97.3986 83.6363C98.8503 83.6363 100.206 83.2925 101.467 82.6048C102.766 81.879 103.798 80.8093 104.562 79.3958C105.326 77.9823 105.708 76.2632 105.708 74.2384C105.708 71.2204 104.905 68.9091 103.301 67.3046C101.735 65.6619 99.8053 64.8405 97.5132 64.8405C95.221 64.8405 93.2918 65.6619 91.7255 67.3046C90.1974 68.9091 89.4333 71.2204 89.4333 74.2384C89.4333 77.2564 90.1783 79.5868 91.6682 81.2295C93.1963 82.834 95.1064 83.6363 97.3986 83.6363Z" fill="#2B2A29"/>
<path d="M132.279 57.8494C134.648 57.8494 136.73 58.327 138.525 59.282C140.321 60.1989 141.735 61.4023 142.766 62.8922V58.3652H150.846V90.3409C150.846 93.2825 150.254 95.8994 149.069 98.1915C147.885 100.522 146.109 102.356 143.74 103.693C141.372 105.068 138.506 105.756 135.145 105.756C130.637 105.756 126.931 104.705 124.028 102.604C121.162 100.503 119.539 97.6376 119.157 94.0083H127.122C127.542 95.46 128.44 96.6061 129.815 97.4466C131.229 98.3252 132.929 98.7646 134.915 98.7646C137.246 98.7646 139.137 98.0578 140.588 96.6443C142.04 95.269 142.766 93.1679 142.766 90.3409V85.4127C141.735 86.9026 140.302 88.1442 138.468 89.1375C136.673 90.1308 134.61 90.6274 132.279 90.6274C129.605 90.6274 127.16 89.9397 124.944 88.5644C122.729 87.1891 120.971 85.2599 119.672 82.7767C118.412 80.2553 117.781 77.371 117.781 74.1238C117.781 70.9148 118.412 68.0687 119.672 65.5855C120.971 63.1023 122.71 61.1922 124.887 59.8551C127.103 58.518 129.567 57.8494 132.279 57.8494ZM142.766 74.2384C142.766 72.2901 142.384 70.6283 141.62 69.253C140.856 67.8394 139.824 66.7698 138.525 66.0439C137.227 65.2799 135.832 64.8978 134.342 64.8978C132.852 64.8978 131.477 65.2608 130.216 65.9866C128.956 66.7125 127.924 67.7821 127.122 69.1956C126.358 70.5709 125.976 72.2137 125.976 74.1238C125.976 76.0339 126.358 77.7149 127.122 79.1666C127.924 80.5801 128.956 81.6688 130.216 82.4329C131.515 83.197 132.891 83.579 134.342 83.579C135.832 83.579 137.227 83.2161 138.525 82.4902C139.824 81.7262 140.856 80.6565 141.62 79.2812C142.384 77.8677 142.766 76.1868 142.766 74.2384Z" fill="#2B2A29"/>
<path d="M189.052 58.3652L169.397 105.125H160.859L167.735 89.3094L155.014 58.3652H164.011L172.205 80.5419L180.514 58.3652H189.052Z" fill="#2B2A29"/>
<path d="M196.93 90.5128C195.478 90.5128 194.275 90.0735 193.32 89.1948C192.403 88.2779 191.945 87.1509 191.945 85.8138C191.945 84.4767 192.403 83.3689 193.32 82.4902C194.275 81.5733 195.478 81.1149 196.93 81.1149C198.344 81.1149 199.509 81.5733 200.426 82.4902C201.342 83.3689 201.801 84.4767 201.801 85.8138C201.801 87.1509 201.342 88.2779 200.426 89.1948C199.509 90.0735 198.344 90.5128 196.93 90.5128Z" fill="#2B2A29"/>
<path d="M232.789 82.4902H216.858L214.222 90.1117H205.799L220.182 50.0561H229.523L243.906 90.1117H235.425L232.789 82.4902ZM230.611 76.0721L224.824 59.3393L219.036 76.0721H230.611Z" fill="#428BCA"/>
<path d="M257.305 50.1134V90.1117H249.282V50.1134H257.305Z" fill="#428BCA"/>
<rect x="314" width="37" height="148" fill="black" fill-opacity="0.5"/>
<defs>
<clipPath id="clip0_32_2">
<rect width="16.2362" height="16.2362" fill="white" transform="translate(265.191 42)"/>
</clipPath>
</defs>
</svg>
